# AST/ASF file generated using VICON BodyLanguage
# -----------------------------------------------
:version 1.10
:name VICON
:units
  mass 1.0
  length 0.45
  angle deg
:documentation
   .ast/.asf automatically generated from VICON data using
   VICON BodyBuilder and BodyLanguage model FoxedUp or BRILLIANT.MOD
:root
   order TX TY TZ RX RY RZ
   axis XYZ
   position 0 0 0  
   orientation 0 0 0 
:bonedata
  begin
     id 1 
     name lhipjoint
     direction 0.714689 -0.624256 0.315473 
     length 2.45343 
     axis 0 0 0  XYZ
  end
  begin
     id 2 
     name lfemur
     direction 0.34202 -0.939693 0  
     length 6.59069  
     axis 0 0 20  XYZ
    dof rx ry rz
    limits (-160.0 20.0)
           (-70.0 70.0)
           (-60.0 70.0)
  end
  begin
     id 3 
     name ltibia
     direction 0.34202 -0.939693 0   
     length 6.73476   
     axis 0 0 20   XYZ
    dof rx
    limits (-10.0 170.0)
  end
  begin
     id 4 
     name lfoot
     direction 0.0718085 -0.197292 0.977711   
     length 1.52607   
     axis -90 7.62852e-016 20   XYZ
    dof rx rz
    limits (-45.0 90.0)
           (-70.0 20.0)
  end
  begin
     id 5 
     name ltoes
     direction 1.53553e-011 -4.22024e-011 1   
     length 0.777832   
     axis -90 7.62852e-016 20   XYZ
    dof rx
    limits (-90.0 20.0)
  end
  begin
     id 6 
     name rhipjoint
     direction -0.727419 -0.612432 0.309497   
     length 2.50079  
     axis 0 0 0  XYZ 
  end
  begin
     id 7 
     name rfemur
     direction -0.34202 -0.939693 0   
     length 6.51665   
     axis 0 0 -20   XYZ
    dof rx ry rz
    limits (-160.0 20.0)
           (-70.0 70.0)
           (-70.0 60.0)
  end
  begin
     id 8 
     name rtibia
     direction -0.34202 -0.939693 0   
     length 6.48919   
     axis 0 0 -20   XYZ
    dof rx
    limits (-10.0 170.0)
 end
 begin
     id 9 
     name rfoot
     direction -0.112205 -0.308282 0.944655   
     length 1.68717  
     axis -90 -7.62852e-016 -20   XYZ
    dof rx rz
    limits (-45.0 90.0)
           (-20.0 70.0)
  end
  begin
     id 10 
     name rtoes
     direction -1.53583e-011 -4.21993e-011 1   
     length 0.846859   
     axis -90 -7.62852e-016 -20   XYZ
    dof rx
    limits (-90.0 20.0)
  end
  begin
     id 11 
     name lowerback
     direction -0.00119603 0.996364 -0.0851956   
     length 1.67242   
     axis 0 0 0   XYZ
    dof rx ry rz
    limits (-20.0 45.0)
           (-30.0 30.0)
           (-30.0 30.0)
  end
  begin
     id 12 
     name upperback
     direction -0.00531001 0.998318 0.0577248   
     length 1.64819   
     axis 0 0 0   XYZ
    dof rx ry rz
    limits (-20.0 45.0)
           (-30.0 30.0)
           (-30.0 30.0)
  end
  begin
     id 13 
     name thorax
     direction -0.00653676 0.995132 0.0983291   
     length 1.67429   
     axis 0 0 0   XYZ
    dof rx ry rz
    limits (-20.0 45.0)
           (-30.0 30.0)
           (-30.0 30.0)
  end
  begin
     id 14 
     name lowerneck
     direction 0.0141424 0.999886 0.00525412   
     length 1.59623   
     axis 0 0 0   XYZ
    dof rx ry rz
    limits (-20.0 45.0)
           (-30.0 30.0)
           (-30.0 30.0)
  end
  begin
     id 15 
     name upperneck
     direction -0.0640064 0.987178 -0.146232   
     length 1.59576   
     axis 0 0 0   XYZ
    dof rx ry rz
    limits (-20.0 45.0)
           (-30.0 30.0)
           (-30.0 30.0)
  end
  begin
     id 16
     name head
     direction -0.0222942 0.998496 -0.0500859  
     length 1.60959  
     axis 0 0 0   XYZ
    dof rx ry rz
    limits (-20.0 45.0)
           (-30.0 30.0)
           (-30.0 30.0)
  end
  begin
     id 17 
     name lclavicle
     direction 0.908549 0.392612 0.142806  
     length 2.80649  
     axis 0 0 0   XYZ
    dof ry rz
    limits (-20.0 10.0)
           (0.0 20.0)
  end
  begin
     id 18 
     name lhumerus
     direction 1 -4.48968e-011 1.08832e-028   
     length 4.2884   
     axis -180 -30 -90   XYZ
    dof rx ry rz
    limits (-60.0 90.0)
           (-90.0 90.0)
           (-90.0 90.0)
  end
  begin
     id 19
     name lradius
     direction 1 -4.48952e-011 -3.02642e-028   
     length 3.06552   
     axis -180 -30 -90   XYZ
    dof rx
    limits (-10.0 170.0)
  end
  begin
     id 20
     name lwrist
     direction 1 -4.49014e-011 1.58672e-027   
     length 1.53276   
     axis -1.65735e-015 90 90   XYZ
    dof ry
    limits (-180.0 0.0)
 end
  begin
     id 21 
     name lhand
     direction 1 -4.48928e-011 3.17344e-027   
     length 0.753045   
     axis -2.02492e-015 90 90   XYZ
    dof rx rz
    limits (-90.0 90.0)
           (-45.0 45.0)
  end
  begin
     id 22 
     name lfingers
     direction 1 -4.48958e-011 6.34687e-027   
     length 0.607124   
     axis -4.04985e-015 90 90   XYZ
    dof rx
    limits (0.0 90.0)
  end
  begin
     id 23
     name lthumb
     direction 0.707107 -6.34905e-011 0.707107   
     length 0.871712   
     axis -90 45 2.85299e-015   XYZ
    dof rx rz
    limits (-45.0 45.0)
           (-45.0 45.0)
  end
  begin
     id 24 
     name rclavicle
     direction -0.885098 0.45949 0.0739604   
     length 2.9478  
     axis 0 0 0   XYZ 
    dof ry rz
    limits (-10.0 20.0)
           (-20.0 0.0)
  end
  begin
     id 25 
     name rhumerus
     direction -1 -4.4898e-011 -2.61739e-027  
     length 4.52172   
     axis -180 30 90   XYZ
    dof rx ry rz
    limits (-90.0 60.0)
           (-90.0 90.0)
           (-90.0 90.0)
  end
  begin
     id 26 
     name rradius
     direction -1 -4.48945e-011 9.02552e-028   
     length 2.8914   
     axis -180 30 90   XYZ
    dof rx
    limits (-10.0 170.0)
  end
  begin
     id 27 
     name rwrist
     direction -1 -4.49018e-011 1.58672e-027   
     length 1.4457   
     axis -1.65735e-015 -90 -90   XYZ
    dof ry
    limits (-180.0 0.0)
  end
  begin
     id 28
     name rhand
     direction -1 -4.48825e-011 3.17344e-027   
     length 0.680541   
     axis -2.02492e-015 -90 -90   XYZ
    dof rx rz
    limits (-90.0 90.0)
           (-45.0 45.0)
  end
  begin
     id 29
     name rfingers
     direction -1 -4.49067e-011 6.34687e-027   
     length 0.54867   
     axis -4.04985e-015 -90 -90   XYZ
    dof rx
    limits (0.0 90.0)
  end
  begin
     id 30
     name rthumb
     direction -0.707107 -6.34833e-011 0.707107   
     length 0.787783   
     axis -90 -45 -2.85299e-015   XYZ
    dof rx rz
    limits (-45.0 45.0)
           (-45.0 45.0)
  end
:hierarchy
  begin
    root lhipjoint rhipjoint lowerback
    lhipjoint lfemur
    lfemur ltibia
    ltibia lfoot
    lfoot ltoes
    rhipjoint rfemur
    rfemur rtibia
    rtibia rfoot
    rfoot rtoes
    lowerback upperback
    upperback thorax
    thorax lowerneck lclavicle rclavicle
    lowerneck upperneck
    upperneck head
    lclavicle lhumerus
    lhumerus lradius
    lradius lwrist
    lwrist lhand lthumb
    lhand lfingers
    rclavicle rhumerus
    rhumerus rradius
    rradius rwrist
    rwrist rhand rthumb
    rhand rfingers
  end

#!OML:ASF E:\emotionWalksFemale\Project 1\Capture day 1\Session 1\Female1.ASF
:FULLY-SPECIFIED
:DEGREES
111
root 8.02263 15.4495 35.2616 182.092 -7.31957 -178.453
lowerback 5.81698 0.58046 -0.880579
upperback -5.51511 0.479942 -0.494743
thorax -9.10022 0.199852 -0.0838059
lowerneck -9.18244 -5.47836 -9.76161
upperneck 13.4949 -7.9566 10.4758
head 6.40872 -3.75557 4.25039
rclavicle -6.41081e-015 1.98785e-014
rhumerus -47.6065 5.70005 -86.1162
rradius 34.3247
rwrist 13.7277
rhand -2.45296 -52.5538
rfingers 7.12502
rthumb 23.2389 -81.1716
lclavicle -6.41081e-015 1.98785e-014
lhumerus -46.6541 -6.50914 85.5197
lradius 42.4545
lwrist -7.09799
lhand -7.7816 -32.5592
lfingers 7.12502
lthumb 18.119 -3.3831
rfemur -14.2029 18.3326 25.8079
rtibia 18.1645
rfoot -10.6926 -32.0569
rtoes 11.4407
lfemur 6.8101 -5.50684 -19.4778
ltibia 35.7535
lfoot 0.413651 -4.33148
ltoes -23.0249
112
root 8.04443 15.4523 35.176 181.804 -7.05206 -178.161
lowerback 6.16598 0.702073 -0.603485
upperback -5.50211 0.681238 -0.435051
thorax -9.29066 0.285282 -0.207818
lowerneck -9.15945 -5.47847 -10.0039
upperneck 13.6994 -7.96696 10.5768
head 6.48401 -3.76887 4.32342
rclavicle -3.47873e-016 9.54166e-015
rhumerus -47.4069 6.06383 -86.1605
rradius 34.281
rwrist 13.5982
rhand -2.47943 -52.0933
rfingers 7.12502
rthumb 23.2135 -80.7144
lclavicle -3.47873e-016 9.54166e-015
lhumerus -46.499 -6.12064 85.1992
lradius 42.7091
lwrist -6.9731
lhand -7.63157 -32.448
lfingers 7.12502
lthumb 18.2633 -3.28539
rfemur -13.1031 17.9392 26.4983
rtibia 17.2198
rfoot -10.3352 -31.4862
rtoes 11.7028
lfemur 5.71675 -4.75579 -18.8151
ltibia 38.4218
lfoot 1.5903 -4.99903
ltoes -21.907
113
root 8.07316 15.4521 35.0796 181.4 -7.68225 -178.06
lowerback 6.3918 0.55606 -0.606057
upperback -5.37093 0.497891 -0.424062
thorax -9.28043 0.20233 -0.170854
lowerneck -9.08028 -5.54467 -10.1478
upperneck 13.7804 -8.0738 10.6655
head 6.51694 -3.82648 4.36712
rclavicle 3.03147e-015 1.35174e-014
rhumerus -47.1645 6.19496 -86.1151
rradius 34.2406
rwrist 13.7163
rhand -2.33618 -52.5849
rfingers 7.12502
rthumb 23.3509 -81.1886
lclavicle 3.03147e-015 1.35174e-014
lhumerus -46.3422 -5.8526 84.9304
lradius 43.0256
lwrist -6.86425
lhand -7.60048 -32.4427
lfingers 7.12502
lthumb 18.2932 -3.28285
rfemur -11.737 17.8954 27.0281
rtibia 16.352
rfoot -11.0185 -32.0225
rtoes 13.6351
lfemur 4.61757 -4.69244 -18.2367
ltibia 41.0543
lfoot 2.94758 -5.86732
ltoes -26.7171
114
root 8.09655 15.4692 34.9913 181.844 -7.55818 -177.855
lowerback 5.95283 0.660943 -0.462662
upperback -5.51093 0.643724 -0.386896
thorax -9.17236 0.25872 -0.228037
lowerneck -9.01726 -5.61562 -10.3007
upperneck 13.7821 -8.17787 10.7824
head 6.52933 -3.87958 4.42121
rclavicle 1.51573e-014 1.19271e-015
rhumerus -46.8588 6.47989 -86.1139
rradius 34.1492
rwrist 13.8403
rhand -2.57312 -52.9066
rfingers 7.12502
rthumb 23.1236 -81.5389
lclavicle 1.51573e-014 1.19271e-015
lhumerus -46.1585 -5.62413 84.7393
lradius 43.2561
lwrist -6.55007
lhand -7.64782 -32.5149
lfingers 7.12502
lthumb 18.2477 -3.35077
rfemur -11.5723 18.0012 27.3423
rtibia 15.6445
rfoot -11.1073 -31.927
rtoes 14.0142
lfemur 2.58819 -3.99391 -17.5838
ltibia 43.6779
lfoot 4.24756 -6.52863
ltoes -25.9462
115
root 8.11836 15.4741 34.8963 181.736 -7.67348 -177.933
lowerback 5.91515 0.612914 -0.378764
upperback -5.42767 0.580215 -0.54127
thorax -9.0562 0.21844 -0.429217
lowerneck -9.111 -5.61543 -10.4
upperneck 13.9811 -8.21235 10.9435
head 6.62327 -3.89094 4.48542
rclavicle -2.11209e-014 7.15625e-015
rhumerus -46.4166 6.80319 -86.3497
rradius 34.026
rwrist 13.8983
rhand -2.78598 -52.8209
rfingers 7.12502
rthumb 22.9193 -81.4787
lclavicle -2.11209e-014 7.15625e-015
lhumerus -45.9646 -5.30579 84.2556
lradius 43.4658
lwrist -6.34545
lhand -7.75554 -32.5284
lfingers 7.12502
lthumb 18.144 -3.35471
rfemur -10.6837 18.0145 27.5642
rtibia 14.99
rfoot -11.1255 -32.0322
rtoes 13.9994
lfemur 1.23296 -3.47491 -17.2887
ltibia 46.2261
lfoot 5.37238 -7.16954
ltoes -24.946
116
root 8.14075 15.4731 34.8075 181.452 -7.67292 -177.766
lowerback 6.22443 0.661966 -0.329217
upperback -5.39166 0.663009 -0.4786
thorax -9.19976 0.261142 -0.405763
lowerneck -9.27748 -5.65923 -10.5276
upperneck 14.3482 -8.28035 10.9223
head 6.78116 -3.92877 4.49001
rclavicle 9.0447e-015 6.36111e-015
rhumerus -46.1571 7.20173 -86.3734
rradius 34.0032
rwrist 13.9554
rhand -2.7855 -52.7527
rfingers 7.12502
rthumb 22.9198 -81.4104
lclavicle 9.0447e-015 6.36111e-015
lhumerus -45.8294 -4.8038 83.9679
lradius 43.6404
lwrist -6.35189
lhand -7.59813 -32.5208
lfingers 7.12502
lthumb 18.2955 -3.36123
rfemur -9.60606 18.0925 28.1108
rtibia 14.2602
rfoot -10.9958 -32.0599
rtoes 14.8043
lfemur 0.0146161 -3.03659 -16.8397
ltibia 48.7637
lfoot 6.10824 -7.56303
ltoes -25.3002
117
root 8.16592 15.4726 34.7194 181.285 -7.74696 -177.573
lowerback 6.27005 0.695941 -0.193894
upperback -5.32049 0.727577 -0.500431
thorax -9.14634 0.285748 -0.514278
lowerneck -9.11329 -5.69322 -10.4268
upperneck 14.2558 -8.35291 10.9199
head 6.72674 -3.9657 4.46799
rclavicle 1.60519e-014 1.19271e-015
rhumerus -45.8547 7.4924 -86.5137
rradius 33.94
rwrist 14.0659
rhand -2.88629 -52.8032
rfingers 7.12502
rthumb 22.8231 -81.4729
lclavicle 1.60519e-014 1.19271e-015
lhumerus -45.6028 -4.44138 83.6163
lradius 43.8602
lwrist -6.08877
lhand -7.56574 -32.7083
lfingers 7.12502
lthumb 18.3266 -3.55166
rfemur -8.71376 18.4955 28.639
rtibia 13.6468
rfoot -11.3008 -32.3996
rtoes 16.5935
lfemur -1.35639 -2.81463 -16.4157
ltibia 51.2276
lfoot 6.67617 -7.76639
ltoes -25.0142
